# xmcd
#
# Track frame offsets: 
#        150
#        18694
#        34615
#        54325
#        74008
#        95001
#        113652
#        137848
#        163577
#        184499
#        201216
#        231408
#
# Disc length: 3326 seconds
#
# Revision: 0
# Processed by: cddbd v1.5.1PL2 Copyright (c) Steve Scherf et al.
# Submitted via: ExactAudioCopy v0.95a5
#
DISCID=b00cfc0c
DTITLE=Big Gilson and Blue Dynamite - Cab Driver Blues
DYEAR=1998
DGENRE=Blues
TTITLE0=Cab Driver Blues
TTITLE1=Halleluia, Halleluia
TTITLE2=Hey Doc
TTITLE3=Ghreen's Boogie
TTITLE4=Tropical Feelin' Blues
TTITLE5=Big G. Billy
TTITLE6=Helena
TTITLE7=Tangerina
TTITLE8=Ice Cream Woman
TTITLE9=Happy Hooker
TTITLE10=Jammin' In Big D
TTITLE11=Cab Driver Blues (Acoustic Version)
EXTD=
EXTT0=
EXTT1=
EXTT2=
EXTT3=
EXTT4=
EXTT5=
EXTT6=
EXTT7=
EXTT8=
EXTT9=
EXTT10=
EXTT11=
PLAYORDER=
